<svg width="28" height="28" viewBox="0 0 28 28" fill="black" xmlns="http://www.w3.org/2000/svg"  >
<rect width="28" height="28" rx="4"/>
<g transform="translate(3, 3)">
<path  d="M15.4173 11.1134C15.1333 13.4784 13.5843 14.4234 12.9153 15.1094C12.2453 15.7974 12.3653 15.9344 12.4103 16.9434C12.4178 17.0682 12.3997 17.1933 12.357 17.3109C12.3143 17.4284 12.2481 17.536 12.1622 17.627C12.0764 17.7179 11.9729 17.7904 11.858 17.8398C11.7431 17.8892 11.6194 17.9146 11.4943 17.9144H8.83629C8.71131 17.9142 8.58769 17.8885 8.47296 17.8389C8.35824 17.7894 8.25481 17.7169 8.169 17.6261C8.08319 17.5352 8.0168 17.4278 7.97386 17.3104C7.93093 17.1931 7.91236 17.0682 7.91929 16.9434C7.91929 15.9534 8.01129 15.7234 7.41529 15.1094C6.65529 14.3494 4.86729 13.2764 4.86729 10.3254C4.86273 9.5924 5.01006 8.8664 5.3 8.19317C5.58995 7.51993 6.01622 6.91406 6.55194 6.41375C7.08766 5.91344 7.72122 5.52953 8.41268 5.28622C9.10413 5.04292 9.8385 4.9455 10.5695 5.00009C11.3005 5.05469 12.0122 5.26013 12.6598 5.60345C13.3075 5.94678 13.877 6.42054 14.3324 6.99489C14.7879 7.56924 15.1194 8.23171 15.3061 8.94054C15.4928 9.64938 15.5307 10.3892 15.4173 11.1134Z" stroke="#FCEDC6" stroke-width="1.5" stroke-linecap="round" stroke-linejoin="round"/>
<path d="M8.625 17.859V19.371C8.625 19.784 8.855 20.123 9.138 20.123H11.191C11.476 20.123 11.705 19.783 11.705 19.371V17.859M9.385 7.319C8.79454 7.31927 8.22835 7.55401 7.81092 7.97163C7.39349 8.38924 7.159 8.95554 7.159 9.546M17.497 10.527H19.331M15.651 4.515L16.952 3.214M16.651 15.623L17.952 16.923M10.165 1V2.483M3.405 3.213L4.697 4.515M2.405 16.923L3.697 15.623M2.833 10.527H1" stroke="#FCEDC6" stroke-width="1.5" stroke-linecap="round" stroke-linejoin="round"/>
</g>
</svg>
