<svg width="18" height="14" viewBox="0 0 18 14" fill="none" xmlns="http://www.w3.org/2000/svg">
<path d="M17.797 12.4416C17.5191 12.2485 17.2746 12.0113 17.0729 11.7395C16.5902 11.191 15.9759 10.5108 14.835 10.5108C13.694 10.5108 13.1016 11.169 12.597 11.7615C12.0923 12.3539 11.7632 12.7049 11.0172 12.7049C10.2712 12.7049 9.89822 12.288 9.43748 11.7615C8.97673 11.2349 8.36236 10.5108 7.19948 10.5108C6.0366 10.5108 5.46616 11.169 4.96149 11.7615C4.45686 12.3539 4.12773 12.7049 3.38175 12.7049C2.63576 12.7049 2.26275 12.288 1.802 11.7615C1.48879 11.3478 1.09273 11.0041 0.639121 10.7522C0.420991 10.6431 0.155783 10.7315 0.0467178 10.9497C-0.0623472 11.1678 0.0260555 11.433 0.244185 11.5421C0.588683 11.7497 0.893325 12.0172 1.14375 12.3319C1.64838 12.9243 2.24078 13.5826 3.38175 13.5826C4.52271 13.5826 5.11507 12.9244 5.61974 12.3319C6.12437 11.7395 6.4535 11.3885 7.19948 11.3885C7.94546 11.3885 8.31848 11.8054 8.77922 12.3319C9.23997 12.8585 9.85433 13.5826 11.0172 13.5826C12.1801 13.5826 12.7505 12.9244 13.2552 12.3319C13.7598 11.7395 14.089 11.3885 14.835 11.3885C15.5809 11.3885 15.9539 11.8054 16.4147 12.3319C16.6704 12.6603 16.9736 12.9486 17.3143 13.1876C17.5203 13.3209 17.7953 13.262 17.9286 13.0559C18.062 12.85 18.003 12.5749 17.797 12.4416Z" fill="#FFEBB9"/>
<path d="M17.797 9.15048C17.5191 8.95734 17.2746 8.72019 17.0729 8.44838C16.5902 7.89987 15.9759 7.21969 14.835 7.21969C13.694 7.21969 13.1016 7.8779 12.597 8.47035C12.0923 9.06275 11.7632 9.4138 11.0172 9.4138C10.2712 9.4138 9.89822 8.9969 9.43748 8.47035C8.97673 7.94375 8.36236 7.21969 7.19948 7.21969C6.0366 7.21969 5.46616 7.8779 4.96149 8.47035C4.45686 9.06275 4.12773 9.4138 3.38175 9.4138C2.63576 9.4138 2.26275 8.9969 1.802 8.47035C1.48879 8.05668 1.09273 7.71294 0.639121 7.46104C0.420991 7.35198 0.155783 7.44038 0.0467178 7.65851C-0.0623472 7.87664 0.0260555 8.14185 0.244185 8.25092C0.588683 8.45855 0.893325 8.72606 1.14375 9.04079C1.64838 9.63319 2.24078 10.2914 3.38175 10.2914C4.52271 10.2914 5.11507 9.63323 5.61974 9.04079C6.12437 8.44838 6.4535 8.09733 7.19948 8.09733C7.94546 8.09733 8.31848 8.51423 8.77922 9.04079C9.23997 9.56738 9.85433 10.2914 11.0172 10.2914C12.1801 10.2914 12.7505 9.63323 13.2552 9.04079C13.7598 8.44838 14.089 8.09733 14.835 8.09733C15.5809 8.09733 15.9539 8.51423 16.4147 9.04079C16.6704 9.36912 16.9736 9.65751 17.3143 9.89647C17.5203 10.0298 17.7953 9.97084 17.9286 9.76481C18.062 9.55886 18.003 9.28378 17.797 9.15048Z" fill="#FFEBB9"/>
<path d="M17.797 5.63981C17.5191 5.44667 17.2746 5.20951 17.0729 4.93771C16.5902 4.38919 15.9759 3.70902 14.835 3.70902C13.694 3.70902 13.1016 4.36723 12.597 4.95968C12.0923 5.55212 11.7632 5.90313 11.0172 5.90313C10.2712 5.90313 9.89822 5.48623 9.43748 4.95968C8.97673 4.43312 8.36236 3.70902 7.19948 3.70902C6.0366 3.70902 5.46616 4.36723 4.96149 4.95968C4.45686 5.55208 4.12773 5.90313 3.38175 5.90313C2.63576 5.90313 2.26275 5.48623 1.802 4.95968C1.48879 4.54601 1.09273 4.20227 0.639121 3.95037C0.420991 3.84131 0.155783 3.92971 0.0467178 4.14784C-0.0623472 4.36597 0.0260555 4.63118 0.244185 4.74024C0.588683 4.94787 0.893325 5.21539 1.14375 5.53011C1.64838 6.12252 2.24078 6.78077 3.38175 6.78077C4.52271 6.78077 5.11507 6.12256 5.61974 5.53011C6.12437 4.93771 6.4535 4.58666 7.19948 4.58666C7.94546 4.58666 8.31848 5.00356 8.77922 5.53011C9.23997 6.05667 9.85433 6.78077 11.0172 6.78077C12.1801 6.78077 12.7505 6.12256 13.2552 5.53011C13.7599 4.93767 14.089 4.58666 14.835 4.58666C15.5809 4.58666 15.9539 5.00356 16.4147 5.53011C16.6704 5.85844 16.9736 6.14683 17.3143 6.38579C17.5203 6.51909 17.7953 6.46017 17.9286 6.25413C18.062 6.04818 18.003 5.77311 17.797 5.63981Z" fill="#FFEBB9"/>
<path d="M0.244358 1.44919C0.588855 1.65682 0.893498 1.92434 1.14392 2.23906C1.64855 2.83147 2.24096 3.48972 3.38192 3.48972C4.52288 3.48972 5.11524 2.83151 5.61991 2.23906C6.12454 1.64666 6.45367 1.29561 7.19965 1.29561C7.94564 1.29561 8.31865 1.71251 8.7794 2.23906C9.24014 2.76566 9.85451 3.48972 11.0174 3.48972C12.1803 3.48972 12.7507 2.83151 13.2554 2.23906C13.76 1.64666 14.0891 1.29561 14.8351 1.29561C15.5811 1.29561 15.9541 1.71251 16.4149 2.23906C16.6706 2.56739 16.9738 2.85578 17.3144 3.09478C17.5204 3.22808 17.7955 3.16912 17.9288 2.96312C18.0621 2.75713 18.0032 2.48206 17.7971 2.34876C17.5192 2.15562 17.2747 1.91846 17.0731 1.64666C16.5904 1.09814 15.976 0.417969 14.8351 0.417969C13.6942 0.417969 13.1018 1.07618 12.5971 1.66862C12.0925 2.26103 11.7633 2.61208 11.0173 2.61208C10.2714 2.61208 9.89835 2.19518 9.43761 1.66862C8.97686 1.14203 8.3625 0.417969 7.19961 0.417969C6.03673 0.417969 5.46629 1.07618 4.96162 1.66862C4.45699 2.26103 4.12786 2.61208 3.38188 2.61208C2.63589 2.61208 2.26296 2.19518 1.80218 1.66858C1.48897 1.25492 1.0929 0.911176 0.639293 0.659281C0.421163 0.550216 0.155955 0.638618 0.04689 0.856748C-0.062175 1.07488 0.0262697 1.34013 0.244358 1.44919Z" fill="#FFEBB9"/>
</svg>
