<svg width="18" height="14" viewBox="0 0 18 14" fill="none" xmlns="http://www.w3.org/2000/svg">
<path d="M17.7969 12.4414C17.519 12.2482 17.2745 12.0111 17.0728 11.7393C16.5901 11.1908 15.9758 10.5106 14.8348 10.5106C13.6939 10.5106 13.1015 11.1688 12.5968 11.7612C12.0922 12.3536 11.7631 12.7047 11.0171 12.7047C10.2711 12.7047 9.8981 12.2878 9.43735 11.7612C8.97661 11.2346 8.36224 10.5106 7.19936 10.5106C6.03648 10.5106 5.46604 11.1688 4.96136 11.7612C4.45673 12.3536 4.12761 12.7047 3.38162 12.7047C2.63564 12.7047 2.26263 12.2878 1.80188 11.7612C1.48867 11.3476 1.0926 11.0038 0.638999 10.7519C0.420869 10.6429 0.155661 10.7313 0.0465957 10.9494C-0.0624693 11.1675 0.0259334 11.4327 0.244063 11.5418C0.588561 11.7494 0.893203 12.017 1.14363 12.3317C1.64826 12.9241 2.24066 13.5823 3.38162 13.5823C4.52258 13.5823 5.11495 12.9241 5.61962 12.3317C6.12425 11.7393 6.45337 11.3882 7.19936 11.3882C7.94534 11.3882 8.31836 11.8051 8.7791 12.3317C9.23984 12.8583 9.85421 13.5823 11.0171 13.5823C12.18 13.5823 12.7504 12.9241 13.2551 12.3317C13.7597 11.7393 14.0888 11.3882 14.8348 11.3882C15.5808 11.3882 15.9538 11.8051 16.4146 12.3317C16.6703 12.66 16.9735 12.9484 17.3141 13.1874C17.5201 13.3207 17.7952 13.2617 17.9285 13.0557C18.0618 12.8497 18.0029 12.5747 17.7969 12.4414Z" fill="#FFEBB9"/>
<path d="M17.7969 9.15024C17.519 8.9571 17.2745 8.71994 17.0728 8.44814C16.5901 7.89962 15.9758 7.21945 14.8348 7.21945C13.6939 7.21945 13.1015 7.87766 12.5968 8.4701C12.0922 9.06251 11.7631 9.41356 11.0171 9.41356C10.2711 9.41356 9.8981 8.99666 9.43735 8.4701C8.97661 7.94351 8.36224 7.21945 7.19936 7.21945C6.03648 7.21945 5.46604 7.87766 4.96136 8.4701C4.45673 9.06251 4.12761 9.41356 3.38162 9.41356C2.63564 9.41356 2.26263 8.99666 1.80188 8.4701C1.48867 8.05644 1.0926 7.7127 0.638999 7.4608C0.420869 7.35174 0.155661 7.44014 0.0465957 7.65827C-0.0624693 7.8764 0.0259334 8.14161 0.244063 8.25067C0.588561 8.4583 0.893203 8.72582 1.14363 9.04054C1.64826 9.63295 2.24066 10.2912 3.38162 10.2912C4.52258 10.2912 5.11495 9.63299 5.61962 9.04054C6.12425 8.44814 6.45337 8.09709 7.19936 8.09709C7.94534 8.09709 8.31836 8.51399 8.7791 9.04054C9.23984 9.56714 9.85421 10.2912 11.0171 10.2912C12.18 10.2912 12.7504 9.63299 13.2551 9.04054C13.7597 8.44814 14.0888 8.09709 14.8348 8.09709C15.5808 8.09709 15.9538 8.51399 16.4146 9.04054C16.6703 9.36887 16.9735 9.65726 17.3141 9.89622C17.5201 10.0295 17.7952 9.9706 17.9285 9.76456C18.0618 9.55861 18.0029 9.28354 17.7969 9.15024Z" fill="#FFEBB9"/>
<path d="M17.7969 5.63956C17.519 5.44642 17.2745 5.20927 17.0728 4.93747C16.5901 4.38895 15.9758 3.70877 14.8348 3.70877C13.6939 3.70877 13.1015 4.36699 12.5968 4.95943C12.0922 5.55188 11.7631 5.90288 11.0171 5.90288C10.2711 5.90288 9.8981 5.48598 9.43735 4.95943C8.97661 4.43288 8.36224 3.70877 7.19936 3.70877C6.03648 3.70877 5.46604 4.36699 4.96136 4.95943C4.45673 5.55183 4.12761 5.90288 3.38162 5.90288C2.63564 5.90288 2.26263 5.48598 1.80188 4.95943C1.48867 4.54577 1.0926 4.20202 0.638999 3.95013C0.420869 3.84106 0.155661 3.92947 0.0465957 4.1476C-0.0624693 4.36573 0.0259334 4.63093 0.244063 4.74C0.588561 4.94763 0.893203 5.21515 1.14363 5.52987C1.64826 6.12227 2.24066 6.78053 3.38162 6.78053C4.52258 6.78053 5.11495 6.12231 5.61962 5.52987C6.12425 4.93747 6.45337 4.58642 7.19936 4.58642C7.94534 4.58642 8.31836 5.00332 8.7791 5.52987C9.23984 6.05642 9.85421 6.78053 11.0171 6.78053C12.18 6.78053 12.7504 6.12231 13.2551 5.52987C13.7598 4.93742 14.0888 4.58642 14.8348 4.58642C15.5808 4.58642 15.9538 5.00332 16.4146 5.52987C16.6703 5.8582 16.9735 6.14659 17.3141 6.38555C17.5201 6.51885 17.7952 6.45993 17.9285 6.25389C18.0618 6.04794 18.0029 5.77286 17.7969 5.63956Z" fill="#FFEBB9"/>
<path d="M0.244236 1.44895C0.588733 1.65658 0.893376 1.9241 1.1438 2.23882C1.64843 2.83122 2.24083 3.48948 3.3818 3.48948C4.52276 3.48948 5.11512 2.83126 5.61979 2.23882C6.12442 1.64642 6.45355 1.29537 7.19953 1.29537C7.94552 1.29537 8.31853 1.71227 8.77927 2.23882C9.24002 2.76541 9.85438 3.48948 11.0173 3.48948C12.1802 3.48948 12.7506 2.83126 13.2553 2.23882C13.7599 1.64642 14.089 1.29537 14.835 1.29537C15.581 1.29537 15.954 1.71227 16.4147 2.23882C16.6705 2.56715 16.9736 2.85554 17.3143 3.09454C17.5203 3.22784 17.7954 3.16887 17.9287 2.96288C18.062 2.75689 18.0031 2.48181 17.797 2.34851C17.5191 2.15537 17.2746 1.91822 17.073 1.64642C16.5902 1.0979 15.9759 0.417725 14.835 0.417725C13.694 0.417725 13.1016 1.07594 12.597 1.66838C12.0923 2.26078 11.7632 2.61183 11.0172 2.61183C10.2712 2.61183 9.89823 2.19493 9.43748 1.66838C8.97674 1.14179 8.36237 0.417725 7.19949 0.417725C6.03661 0.417725 5.46617 1.07594 4.96149 1.66838C4.45686 2.26078 4.12774 2.61183 3.38175 2.61183C2.63577 2.61183 2.26284 2.19493 1.80205 1.66834C1.48884 1.25467 1.09278 0.910932 0.639171 0.659036C0.421041 0.549972 0.155833 0.638374 0.0467679 0.856504C-0.062297 1.07463 0.0261476 1.33988 0.244236 1.44895Z" fill="#FFEBB9"/>
</svg>
